<?xml version="1.0" encoding="utf-8"?>
<!-- Generator: Adobe Illustrator 21.1.0, SVG Export Plug-In . SVG Version: 6.00 Build 0)  -->
<svg version="1.1" id="Layer_1" xmlns="http://www.w3.org/2000/svg" xmlns:xlink="http://www.w3.org/1999/xlink" x="0px" y="0px"
	 viewBox="0 0 20 19" style="enable-background:new 0 0 20 19;" xml:space="preserve">
<style type="text/css">
	.st0{fill:#D80909;}
</style>
<g>
	<path class="st0" d="M9.8,18.7c-5.1,0-9.2-4.1-9.2-9.2s4.1-9.2,9.2-9.2c5.1,0,9.2,4.1,9.2,9.2S14.9,18.7,9.8,18.7z M9.8,2.1
		c-4.1,0-7.4,3.3-7.4,7.4c0,4.1,3.3,7.4,7.4,7.4c4.1,0,7.4-3.3,7.4-7.4C17.2,5.4,13.9,2.1,9.8,2.1z"/>
</g>
<path class="st0" d="M11.5,9.8c0,0-0.1,0-0.1,0c-0.5,0-0.9,0-1.4,0c-0.6,0-1.2,0.1-1.7,0.4c-0.6,0.3-1,0.8-1.1,1.5
	C6.9,12.3,7,12.9,7,13.5c0,0.1,0,0.1,0,0.2c0,0.1,0,0.2-0.1,0.3c-0.1,0-0.2,0-0.3-0.1c-0.1-0.2-0.2-0.4-0.4-0.6
	c-0.3-0.6-0.6-1.2-0.7-1.8c-0.1-0.4,0-0.7,0-1.1C5.7,10,5.8,9.5,6,9.1C6.2,8.7,6.6,8.3,7,8c0.6-0.4,1.3-0.5,2-0.6
	c0.8-0.1,1.6-0.1,2.3-0.1c0,0,0.1,0,0.2,0c0-0.1,0-0.1,0-0.1c0-0.4,0-0.8,0-1.2c0-0.2,0.1-0.3,0.3-0.3c0.1-0.1,0.3,0,0.4,0.1
	c0,0,0.1,0.1,0.1,0.1c0.8,0.8,1.6,1.6,2.4,2.4c0.2,0.2,0.2,0.5,0,0.7c-0.8,0.8-1.6,1.6-2.4,2.4c-0.2,0.2-0.5,0.2-0.6,0
	c-0.1-0.1-0.1-0.2-0.1-0.3c0-0.4,0-0.7,0-1.1C11.5,9.9,11.5,9.9,11.5,9.8z"/>
</svg>
