<?xml version="1.0" encoding="utf-8"?>
<!-- Generator: Adobe Illustrator 21.1.0, SVG Export Plug-In . SVG Version: 6.00 Build 0)  -->
<svg version="1.1" xmlns="http://www.w3.org/2000/svg" xmlns:xlink="http://www.w3.org/1999/xlink" x="0px" y="0px"
	 viewBox="0 0 20 19" style="enable-background:new 0 0 20 19;" xml:space="preserve">
<style type="text/css">
	.st0{display:none;}
	.st1{display:inline;}
	.st2{fill:#D80909;}
	.st3{display:inline;fill:#D80909;}
</style>
<g id="Layer_1" class="st0">
	<g class="st1">
		<path class="st2" d="M9.8,18.7c-5.1,0-9.2-4.1-9.2-9.2s4.1-9.2,9.2-9.2c5.1,0,9.2,4.1,9.2,9.2S14.9,18.7,9.8,18.7z M9.8,2.1
			c-4.1,0-7.4,3.3-7.4,7.4c0,4.1,3.3,7.4,7.4,7.4c4.1,0,7.4-3.3,7.4-7.4C17.2,5.4,13.9,2.1,9.8,2.1z"/>
	</g>
	<path class="st3" d="M11.5,9.8c0,0-0.1,0-0.1,0c-0.5,0-0.9,0-1.4,0c-0.6,0-1.2,0.1-1.7,0.4c-0.6,0.3-1,0.8-1.1,1.5
		C6.9,12.3,7,12.9,7,13.5c0,0.1,0,0.1,0,0.2c0,0.1,0,0.2-0.1,0.3c-0.1,0-0.2,0-0.3-0.1c-0.1-0.2-0.2-0.4-0.4-0.6
		c-0.3-0.6-0.6-1.2-0.7-1.8c-0.1-0.4,0-0.7,0-1.1C5.7,10,5.8,9.5,6,9.1C6.2,8.7,6.6,8.3,7,8c0.6-0.4,1.3-0.5,2-0.6
		c0.8-0.1,1.6-0.1,2.3-0.1c0,0,0.1,0,0.2,0c0-0.1,0-0.1,0-0.1c0-0.4,0-0.8,0-1.2c0-0.2,0.1-0.3,0.3-0.3c0.1-0.1,0.3,0,0.4,0.1
		c0,0,0.1,0.1,0.1,0.1c0.8,0.8,1.6,1.6,2.4,2.4c0.2,0.2,0.2,0.5,0,0.7c-0.8,0.8-1.6,1.6-2.4,2.4c-0.2,0.2-0.5,0.2-0.6,0
		c-0.1-0.1-0.1-0.2-0.1-0.3c0-0.4,0-0.7,0-1.1C11.5,9.9,11.5,9.9,11.5,9.8z"/>
</g>
<g id="Layer_2">
	<g>
		<path class="st2" d="M9.7,19c-5.1,0-9.3-4.2-9.3-9.3s4.2-9.3,9.3-9.3S19,4.7,19,9.8S14.8,19,9.7,19z M9.7,2.3
			c-4.1,0-7.5,3.4-7.5,7.5c0,4.1,3.4,7.5,7.5,7.5c4.1,0,7.5-3.4,7.5-7.5C17.2,5.6,13.8,2.3,9.7,2.3z"/>
	</g>
	<g>
		<g>
			<path class="st2" d="M11,9.4 M11.2,9.6c0.4,0.3,0.9,0.5,1.4,0.5c1.2,0,2.1-1,2.1-2.1s-1-2.1-2.1-2.1c-0.6,0-1.2,0.3-1.6,0.7
				c0,0-0.1,0.1-0.1,0.1c0,0-0.1,0.1-0.1,0.1l-0.2-0.1c0,0,0.1-0.1,0.1-0.1c0,0,0.1-0.1,0.1-0.1c0.4-0.5,1.1-0.8,1.7-0.8
				c1.3,0,2.4,1.1,2.4,2.4c0,1.3-1.1,2.4-2.4,2.4c-0.6,0-1.1-0.2-1.5-0.5L11.2,9.6z"/>
		</g>
		<path class="st2" d="M8.4,9.9L7.6,9.1l0.8,0.8L8.4,9.9z M10.4,12.7l-0.8,1.1c0,0-0.1,0-0.1,0l-0.7-1.2c0,0,0,0,0,0l0.5-2.5L9,9.7
			c0,0,0-0.1,0-0.2l0.2-0.5C9.3,9,9.3,9,9.4,9l0.4,0C9.9,9,9.9,9,10,9.1l0.2,0.5c0,0,0,0.1,0,0.2L10,10.2L10.4,12.7
			C10.5,12.7,10.5,12.7,10.4,12.7z M13.3,11.8c-0.2-1.2-0.9-2.3-2-2.9l-0.7,0.9l-0.1-0.1L11.4,9c-0.1-0.1-0.3-0.2-0.4-0.2
			c0.4-0.4,0.7-0.9,0.7-1.5c0-1.2-0.9-2.1-2-2.1s-2,0.9-2,2.1c0,0.6,0.3,1.2,0.7,1.5C7,9.2,6,10.4,5.8,11.9c0,0-0.1,0.7,0.4,0.9
			l2.5,1.4c0,0,0.9,0.5,1.7,0l2.6-1.5C13.5,12.5,13.3,11.8,13.3,11.8z"/>
		<path class="st2" d="M13.4,6.9c-0.3-0.4-0.7-0.4-0.7-0.4c-0.7,0-0.8,0.7-0.8,0.7c0,0.3,0.1,0.6,0.1,0.6c0.1,0.4,0.6,1.1,0.6,1.1
			c0.1,0.1,0.1,0,0.1,0L13,8.6c0.3-0.4,0.5-0.9,0.5-0.9C13.7,7.3,13.4,6.9,13.4,6.9z M12.7,7.9c-0.3,0-0.5-0.2-0.5-0.5
			c0-0.3,0.2-0.5,0.5-0.5c0.3,0,0.5,0.2,0.5,0.5C13.2,7.6,13,7.9,12.7,7.9z"/>
		<ellipse class="st2" cx="12.7" cy="9.3" rx="0.4" ry="0.1"/>
	</g>
</g>
</svg>
