<svg id="Layer_3" data-name="Layer 3" xmlns="http://www.w3.org/2000/svg" viewBox="0 0 18.51 18.51"><defs><style>.cls-1{fill:#d80909;}</style></defs><title>3</title><path class="cls-1" d="M9.74,18.74A9.26,9.26,0,1,1,19,9.48,9.27,9.27,0,0,1,9.74,18.74ZM9.74,2a7.47,7.47,0,1,0,7.47,7.47A7.48,7.48,0,0,0,9.74,2Z" transform="translate(-0.49 -0.23)"/><polygon class="cls-1" points="12.61 14.03 5.88 14.03 5.88 5.89 7.01 5.89 7.01 6.17 6.16 6.17 6.16 13.75 12.32 13.75 12.32 6.17 11.54 6.17 11.54 5.89 12.61 5.89 12.61 14.03"/><polygon class="cls-1" points="12.83 14.25 5.66 14.25 5.66 5.67 7.23 5.67 7.23 6.4 6.38 6.4 6.38 13.53 12.1 13.53 12.1 6.4 11.31 6.4 11.31 5.67 12.83 5.67 12.83 14.25"/><rect class="cls-1" x="6.88" y="8.08" width="2.36" height="0.42"/><rect class="cls-1" x="6.88" y="10.1" width="2.36" height="0.42"/><rect class="cls-1" x="6.88" y="12.08" width="2.36" height="0.42"/><path class="cls-1" d="M7.14,13" transform="translate(-0.49 -0.23)"/><path class="cls-1" d="M12.06,7.2H7.5V5.46H9a.82.82,0,0,1,1.64,0h1.46ZM7.78,6.92h4V5.74H10.3l0-.18a.54.54,0,1,0-1.08,0v0l0,.16-.16,0H7.78Z" transform="translate(-0.49 -0.23)"/><path class="cls-1" d="M12.28,7.42h-5V5.24h1.5a1,1,0,0,1,2,0h1.5ZM8,6.7h3.55V6h-1.5l0-.43A.34.34,0,0,0,10,5.3a.33.33,0,0,0-.54.23l.05.38L9.13,6H8Z" transform="translate(-0.49 -0.23)"/><polygon class="cls-1" points="10.12 9.03 9.48 8.29 9.8 8.01 10.17 8.43 11.35 7.4 11.63 7.72 10.12 9.03"/><path class="cls-1" d="M9.66,8.49" transform="translate(-0.49 -0.23)"/><polygon class="cls-1" points="10.26 10.72 9.62 9.98 9.94 9.7 10.3 10.12 11.48 9.09 11.76 9.41 10.26 10.72"/><polygon class="cls-1" points="10.37 12.74 9.73 11.99 10.05 11.72 10.41 12.14 11.59 11.11 11.87 11.43 10.37 12.74"/></svg>