<svg id="Layer_4" data-name="Layer 4" xmlns="http://www.w3.org/2000/svg" viewBox="0 0 18.14 18.14"><defs><style>.cls-1{fill:#d80909;}</style></defs><title>4</title><path class="cls-1" d="M9.93,18.59A9.07,9.07,0,1,1,19,9.52,9.08,9.08,0,0,1,9.93,18.59Zm0-16.39a7.32,7.32,0,1,0,7.32,7.32A7.33,7.33,0,0,0,9.93,2.2Z" transform="translate(-0.86 -0.45)"/><path class="cls-1" d="M13.52,13.81h0a.77.77,0,0,1-.47-.23l-.92-.73H8.61a1.11,1.11,0,0,1-1.11-1.11h.7a.41.41,0,0,0,.41.41h3.74l.7.56-.15-.56h.46a.41.41,0,0,0,.41-.41V9.19a.41.41,0,0,0-.41-.41v-.7a1.11,1.11,0,0,1,1.11,1.11v2.54a1.11,1.11,0,0,1-.68,1l.14.5a.47.47,0,0,1-.09.41A.42.42,0,0,1,13.52,13.81Z" transform="translate(-0.86 -0.45)"/><path class="cls-1" d="M6.21,12.86a.42.42,0,0,1-.33-.15.49.49,0,0,1-.09-.39L6,11.66a1.24,1.24,0,0,1-.8-1.16v-3A1.24,1.24,0,0,1,6.4,6.27H12a1.24,1.24,0,0,1,1.24,1.24v3A1.24,1.24,0,0,1,12,11.73H7.85l-1.12.89a.81.81,0,0,1-.5.23ZM6.4,7a.54.54,0,0,0-.54.54v3A.54.54,0,0,0,6.4,11h.46l-.21.76,1-.76H12a.54.54,0,0,0,.54-.54v-3A.54.54,0,0,0,12,7Z" transform="translate(-0.86 -0.45)"/><circle class="cls-1" cx="6.4" cy="8.38" r="0.49"/><circle class="cls-1" cx="8.3" cy="8.47" r="0.49"/><circle class="cls-1" cx="10.11" cy="8.47" r="0.49"/></svg>