<?xml version="1.0" encoding="utf-8"?>
<!-- Generator: Adobe Illustrator 21.1.0, SVG Export Plug-In . SVG Version: 6.00 Build 0)  -->
<svg version="1.1" xmlns="http://www.w3.org/2000/svg" xmlns:xlink="http://www.w3.org/1999/xlink" x="0px" y="0px"
	 viewBox="0 0 20 19" style="enable-background:new 0 0 20 19;" xml:space="preserve">
<style type="text/css">
	.st0{display:none;}
	.st1{display:inline;}
	.st2{fill:#D80909;}
	.st3{display:inline;fill:#D80909;}
</style>
<g id="Layer_1" class="st0">
	<g class="st1">
		<path class="st2" d="M9.8,18.7c-5.1,0-9.2-4.1-9.2-9.2s4.1-9.2,9.2-9.2c5.1,0,9.2,4.1,9.2,9.2S14.9,18.7,9.8,18.7z M9.8,2.1
			c-4.1,0-7.4,3.3-7.4,7.4c0,4.1,3.3,7.4,7.4,7.4c4.1,0,7.4-3.3,7.4-7.4C17.2,5.4,13.9,2.1,9.8,2.1z"/>
	</g>
	<path class="st3" d="M11.5,9.8c0,0-0.1,0-0.1,0c-0.5,0-0.9,0-1.4,0c-0.6,0-1.2,0.1-1.7,0.4c-0.6,0.3-1,0.8-1.1,1.5
		C6.9,12.3,7,12.9,7,13.5c0,0.1,0,0.1,0,0.2c0,0.1,0,0.2-0.1,0.3c-0.1,0-0.2,0-0.3-0.1c-0.1-0.2-0.2-0.4-0.4-0.6
		c-0.3-0.6-0.6-1.2-0.7-1.8c-0.1-0.4,0-0.7,0-1.1C5.7,10,5.8,9.5,6,9.1C6.2,8.7,6.6,8.3,7,8c0.6-0.4,1.3-0.5,2-0.6
		c0.8-0.1,1.6-0.1,2.3-0.1c0,0,0.1,0,0.2,0c0-0.1,0-0.1,0-0.1c0-0.4,0-0.8,0-1.2c0-0.2,0.1-0.3,0.3-0.3c0.1-0.1,0.3,0,0.4,0.1
		c0,0,0.1,0.1,0.1,0.1c0.8,0.8,1.6,1.6,2.4,2.4c0.2,0.2,0.2,0.5,0,0.7c-0.8,0.8-1.6,1.6-2.4,2.4c-0.2,0.2-0.5,0.2-0.6,0
		c-0.1-0.1-0.1-0.2-0.1-0.3c0-0.4,0-0.7,0-1.1C11.5,9.9,11.5,9.9,11.5,9.8z"/>
</g>
<g id="Layer_2" class="st0">
	<g class="st1">
		<path class="st2" d="M9.7,19c-5.1,0-9.3-4.2-9.3-9.3s4.2-9.3,9.3-9.3S19,4.7,19,9.8S14.8,19,9.7,19z M9.7,2.3
			c-4.1,0-7.5,3.4-7.5,7.5c0,4.1,3.4,7.5,7.5,7.5c4.1,0,7.5-3.4,7.5-7.5C17.2,5.6,13.8,2.3,9.7,2.3z"/>
	</g>
	<g class="st1">
		<g>
			<path class="st2" d="M11,9.4 M11.2,9.6c0.4,0.3,0.9,0.5,1.4,0.5c1.2,0,2.1-1,2.1-2.1s-1-2.1-2.1-2.1c-0.6,0-1.2,0.3-1.6,0.7
				c0,0-0.1,0.1-0.1,0.1c0,0-0.1,0.1-0.1,0.1l-0.2-0.1c0,0,0.1-0.1,0.1-0.1c0,0,0.1-0.1,0.1-0.1c0.4-0.5,1.1-0.8,1.7-0.8
				c1.3,0,2.4,1.1,2.4,2.4c0,1.3-1.1,2.4-2.4,2.4c-0.6,0-1.1-0.2-1.5-0.5L11.2,9.6z"/>
		</g>
		<path class="st2" d="M8.4,9.9L7.6,9.1l0.8,0.8L8.4,9.9z M10.4,12.7l-0.8,1.1c0,0-0.1,0-0.1,0l-0.7-1.2c0,0,0,0,0,0l0.5-2.5L9,9.7
			c0,0,0-0.1,0-0.2l0.2-0.5C9.3,9,9.3,9,9.4,9l0.4,0C9.9,9,9.9,9,10,9.1l0.2,0.5c0,0,0,0.1,0,0.2L10,10.2L10.4,12.7
			C10.5,12.7,10.5,12.7,10.4,12.7z M13.3,11.8c-0.2-1.2-0.9-2.3-2-2.9l-0.7,0.9l-0.1-0.1L11.4,9c-0.1-0.1-0.3-0.2-0.4-0.2
			c0.4-0.4,0.7-0.9,0.7-1.5c0-1.2-0.9-2.1-2-2.1s-2,0.9-2,2.1c0,0.6,0.3,1.2,0.7,1.5C7,9.2,6,10.4,5.8,11.9c0,0-0.1,0.7,0.4,0.9
			l2.5,1.4c0,0,0.9,0.5,1.7,0l2.6-1.5C13.5,12.5,13.3,11.8,13.3,11.8z"/>
		<path class="st2" d="M13.4,6.9c-0.3-0.4-0.7-0.4-0.7-0.4c-0.7,0-0.8,0.7-0.8,0.7c0,0.3,0.1,0.6,0.1,0.6c0.1,0.4,0.6,1.1,0.6,1.1
			c0.1,0.1,0.1,0,0.1,0L13,8.6c0.3-0.4,0.5-0.9,0.5-0.9C13.7,7.3,13.4,6.9,13.4,6.9z M12.7,7.9c-0.3,0-0.5-0.2-0.5-0.5
			c0-0.3,0.2-0.5,0.5-0.5c0.3,0,0.5,0.2,0.5,0.5C13.2,7.6,13,7.9,12.7,7.9z"/>
		<ellipse class="st2" cx="12.7" cy="9.3" rx="0.4" ry="0.1"/>
	</g>
</g>
<g id="Layer_3" class="st0">
	<g class="st1">
		<path class="st2" d="M9.7,18.7c-5.1,0-9.3-4.2-9.3-9.3s4.2-9.3,9.3-9.3S19,4.4,19,9.5S14.8,18.7,9.7,18.7z M9.7,2
			C5.6,2,2.3,5.4,2.3,9.5c0,4.1,3.4,7.5,7.5,7.5c4.1,0,7.5-3.4,7.5-7.5C17.2,5.4,13.9,2,9.7,2z"/>
	</g>
	<g class="st1">
		<g>
			<g>
				<polygon class="st2" points="13.1,14.3 6.4,14.3 6.4,6.1 7.5,6.1 7.5,6.4 6.6,6.4 6.6,14 12.8,14 12.8,6.4 12,6.4 12,6.1 
					13.1,6.1 				"/>
				<polygon class="st2" points="13.3,14.5 6.1,14.5 6.1,5.9 7.7,5.9 7.7,6.6 6.9,6.6 6.9,13.8 12.6,13.8 12.6,6.6 11.8,6.6 
					11.8,5.9 13.3,5.9 				"/>
			</g>
		</g>
		<g>
			<g>
				<rect x="7.4" y="8.3" class="st2" width="2.4" height="0.4"/>
			</g>
		</g>
		<g>
			<g>
				<rect x="7.4" y="10.3" class="st2" width="2.4" height="0.4"/>
			</g>
		</g>
		<g>
			<g>
				<rect x="7.4" y="12.3" class="st2" width="2.4" height="0.4"/>
				<path class="st2" d="M7.1,13"/>
			</g>
		</g>
		<g>
			<g>
				<path class="st2" d="M12.1,7.2H7.5V5.5H9C9,5,9.3,4.7,9.8,4.7c0.4,0,0.8,0.3,0.8,0.8h1.5V7.2z M7.8,6.9h4V5.7h-1.5l0-0.2
					c0-0.3-0.2-0.6-0.5-0.6C9.5,5,9.2,5.2,9.2,5.5c0,0,0,0,0,0l0,0.2l-0.2,0H7.8V6.9z"/>
				<path class="st2" d="M12.3,7.4h-5V5.2h1.5c0.1-0.4,0.5-0.8,1-0.8c0.5,0,0.9,0.3,1,0.8h1.5V7.4z M8,6.7h3.6V6h-1.5l0-0.4
					c0-0.1,0-0.2-0.1-0.2c-0.2-0.2-0.5,0-0.5,0.2l0.1,0.4L9.1,6L8,6V6.7z"/>
			</g>
		</g>
		<g>
			<g>
				<polygon class="st2" points="10.6,9.3 10,8.5 10.3,8.2 10.7,8.7 11.8,7.6 12.1,7.9 				"/>
				<path class="st2" d="M9.7,8.5"/>
			</g>
		</g>
		<g>
			<g>
				<polygon class="st2" points="10.7,11 10.1,10.2 10.4,9.9 10.8,10.4 12,9.3 12.2,9.6 				"/>
			</g>
		</g>
		<g>
			<g>
				<polygon class="st2" points="10.9,13 10.2,12.2 10.5,11.9 10.9,12.4 12.1,11.3 12.4,11.7 				"/>
			</g>
		</g>
	</g>
</g>
<g id="Layer_4" class="st0">
	<g class="st1">
		<g>
			<path class="st2" d="M13.5,13.8C13.5,13.8,13.5,13.8,13.5,13.8c-0.1,0-0.3,0-0.5-0.2l-0.9-0.7H8.6c-0.6,0-1.1-0.5-1.1-1.1h0.7
				c0,0.2,0.2,0.4,0.4,0.4h3.7l0.7,0.6l-0.2-0.6h0.5c0.2,0,0.4-0.2,0.4-0.4V9.2c0-0.2-0.2-0.4-0.4-0.4V8.1c0.6,0,1.1,0.5,1.1,1.1
				v2.5c0,0.5-0.3,0.9-0.7,1l0.1,0.5c0,0.1,0,0.3-0.1,0.4C13.8,13.8,13.6,13.8,13.5,13.8z"/>
		</g>
		<g>
			<g>
				<path class="st2" d="M6.2,12.9c-0.1,0-0.3-0.1-0.3-0.2c-0.1-0.2-0.1-0.3-0.1-0.4L6,11.7c-0.5-0.2-0.8-0.6-0.8-1.2v-3
					c0-0.7,0.6-1.2,1.2-1.2H12c0.7,0,1.2,0.6,1.2,1.2v3c0,0.7-0.6,1.2-1.2,1.2H7.9l-1.1,0.9C6.5,12.8,6.3,12.9,6.2,12.9L6.2,12.9z
					 M6.4,7C6.1,7,5.9,7.2,5.9,7.5v3c0,0.3,0.2,0.5,0.5,0.5h0.5l-0.2,0.8l1-0.8H12c0.3,0,0.5-0.2,0.5-0.5v-3C12.5,7.2,12.3,7,12,7
					H6.4z"/>
			</g>
			<circle class="st2" cx="7.3" cy="8.8" r="0.5"/>
			<circle class="st2" cx="9.2" cy="8.9" r="0.5"/>
			<circle class="st2" cx="11" cy="8.9" r="0.5"/>
		</g>
	</g>
</g>
<g id="Layer_5">
	<g class="st0">
		<path class="st3" d="M13.2,8.4c0-0.3-0.1-0.7,0-1c0.3-1.8-1.3-3.3-3.1-2.9C8.7,4.8,7.9,6.1,8.3,7.9c-0.2,0-0.4,0-0.6-0.1
			C7.2,7.5,6.7,7.3,6.2,7C5.8,6.8,5.5,6.9,5.5,7.4c0,1.7,0,3.3,0,5c0,0.2,0.2,0.5,0.3,0.6c0.6,0.3,1.2,0.7,1.8,0.9
			C7.8,14,8,14,8.2,13.9c0.7-0.2,1.4-0.5,2.1-0.8c0.2-0.1,0.5-0.1,0.7,0c0.6,0.2,1.1,0.5,1.7,0.8c0.4,0.2,0.6,0,0.6-0.4
			C13.3,11.8,13.3,10.1,13.2,8.4z M12.5,7.3c-0.4,1.2-1,2.4-1.5,3.6c-0.1,0.3-0.5,0.3-0.6,0C9.8,9.7,9.3,8.5,8.8,7.3
			C8.7,7.2,8.8,7,8.7,7c0-1.2,1-2.1,2.2-2C12,5.2,12.9,6.3,12.5,7.3z"/>
		<path class="st3" d="M10.7,6.1c0.6,0,1,0.5,1,1c0,0.5-0.5,1-1,1c-0.5,0-1-0.4-1-1C9.7,6.6,10.1,6.1,10.7,6.1z"/>
	</g>
	<g>
		<path class="st2" d="M9.9,18.6c-5,0-9.1-4.1-9.1-9.1s4.1-9.1,9.1-9.1S19,4.5,19,9.5S14.9,18.6,9.9,18.6z M9.9,2.2
			c-4,0-7.3,3.3-7.3,7.3c0,4,3.3,7.3,7.3,7.3c4,0,7.3-3.3,7.3-7.3C17.3,5.5,14,2.2,9.9,2.2z"/>
	</g>
	<g class="st0">
		<path class="st3" d="M12.9,12.9H7c-0.4,0-0.7-0.2-0.9-0.5c-0.2-0.3-0.2-0.7,0-1.1l3-5.1C9.2,5.8,9.6,5.6,10,5.6
			c0.4,0,0.7,0.2,0.9,0.5l3,5.1c0.2,0.3,0.2,0.7,0,1.1C13.7,12.7,13.3,12.9,12.9,12.9z M10,5.9c-0.3,0-0.5,0.1-0.6,0.4l-3,5.1
			c-0.1,0.2-0.1,0.5,0,0.7c0.1,0.2,0.4,0.4,0.6,0.4h5.9c0.3,0,0.5-0.1,0.6-0.4c0.1-0.2,0.1-0.5,0-0.7l-3-5.1
			C10.5,6.1,10.2,5.9,10,5.9z"/>
	</g>
	<g class="st0">
		<path class="st3" d="M9.5,10.4h0.8v0.8H9.5V10.4z M10.3,8.9l-0.2,1.3H9.7L9.5,8.9V8.2h0.7V8.9z"/>
	</g>
	<g>
		<g>
			<path class="st2" d="M14,11.7c-0.3-1.5-1.3-2.8-2.6-3.3c0.4-0.4,0.7-1,0.7-1.7c0-1.2-1-2.3-2.2-2.3s-2.2,1-2.2,2.3
				c0,0.7,0.3,1.2,0.7,1.7c-1.3,0.5-2.4,1.8-2.6,3.4c0,0-0.1,0.7,0.4,1L9,14.3c0,0,1,0.5,1.8,0l2.8-1.6C14.1,12.4,14,11.7,14,11.7z"
				/>
		</g>
	</g>
</g>
<g id="Layer_6" class="st0">
	<path class="st3" d="M5.9,13.5c0,0,0.2,0.1,0.7,0.1c0.2,0,0.4-0.1,0.5-0.3c0-0.1,0-0.2,0-0.3c0-0.2,0-0.4,0-0.7c2,0,3.9,0,5.9,0
		c0,0.2,0,0.4,0,0.6c0,0.6,0.1,0.7,0.6,0.7c0.1,0,0.2,0,0.3,0c0.4,0,0.6-0.1,0.6-0.6c0-0.4-0.1-0.7,0.3-1c0.1-0.1,0.1-0.3,0.1-0.4
		c0-0.4,0-0.8,0-1.2c0-0.6-0.2-1.1-0.6-1.5c-0.1-0.1-0.1-0.2-0.3-0.3c0.3,0,0.5,0,0.8-0.1c0.1,0,0.2-0.2,0.3-0.4
		c0-0.1-0.1-0.3-0.3-0.3c-0.5-0.2-0.6-0.1-0.9,0.4c-0.2-0.4-0.4-0.8-0.7-1.2c-0.3-0.6-0.8-0.9-1.5-0.9c-0.9,0-1.8,0.1-2.7,0
		C7.9,6,7.1,6.5,6.6,7.6C6.6,7.8,6.4,8,6.3,8.1C6.3,7.7,6,7.7,5.7,7.7c-0.1,0-0.3,0.1-0.3,0.1C5.3,7.9,5.2,8,5.2,8.1
		c0,0.2,0.1,0.4,0.4,0.4c0.2,0,0.4,0.1,0.6,0.1C6,8.8,5.8,9.1,5.6,9.3c-0.4,0.8-0.3,1.7-0.2,2.5c0,0.1,0.1,0.2,0.1,0.2
		c0.2,0.1,0.2,0.4,0.2,0.6c0,0.2,0,0.3,0,0.5C5.7,13.3,5.8,13.4,5.9,13.5 M7.4,6.9c0.2-0.3,0.5-0.5,0.9-0.5c1.2,0,2.4,0,3.5,0
		c0.4,0,0.8,0.2,1.1,0.6c0.3,0.5,0.5,1,0.8,1.6c-0.3,0.2-6.8,0.2-7.2,0C6.8,8,7.1,7.4,7.4,6.9z M8.1,10.3c0-0.1,0-0.1,0-0.2h4.2
		c0,0.1,0,0.1,0,0.2H8.1z M8,10c0,0,0-0.1,0-0.1c0,0,0,0,0,0c0.1,0,0.2-0.1,0.3-0.1c1.3,0,2.5,0,3.8,0c0.1,0,0.1,0,0.2,0.1
		c0,0.1,0,0.1,0,0.2H8z M6.4,10.6c-0.5,0-0.5,0-0.5-0.6c0-0.5,0.3-0.8,0.8-0.7C6.8,9.3,7,9.5,7.1,9.7c0.1,0.1,0.2,0.3,0.3,0.5
		c0,0.1,0.1,0.2,0.2,0.4C7.1,10.6,6.8,10.6,6.4,10.6z M11.1,11.9c-0.3,0-0.7,0-1,0c-0.3,0-0.6,0-0.9,0c-0.3,0-0.1-0.4-0.1-0.4l2.1,0
		C11.1,11.4,11.4,11.9,11.1,11.9z M9.1,11.4c0.6,0,1.3,0,1.9,0L9.1,11.4z M11.8,10.7c-1.2,0-2.3,0-3.5,0c-0.1,0-0.1-0.1-0.2-0.1
		c0,0,0,0,0-0.1c0,0,0,0,0,0h4c0,0,0,0,0,0.1C12,10.6,11.9,10.7,11.8,10.7z M14.1,9.4c0.2,0.2,0.4,0.8,0.2,1.1
		c0,0.1-0.1,0.1-0.2,0.1c-0.5,0-0.9,0-1.4,0c0.2-0.4,0.3-0.7,0.5-1C13.4,9.2,13.8,9.2,14.1,9.4z"/>
</g>
</svg>
