<?xml version="1.0" encoding="utf-8"?>
<!-- Generator: Adobe Illustrator 21.1.0, SVG Export Plug-In . SVG Version: 6.00 Build 0)  -->
<svg version="1.1" xmlns="http://www.w3.org/2000/svg" xmlns:xlink="http://www.w3.org/1999/xlink" x="0px" y="0px"
	 viewBox="0 0 93 94" style="enable-background:new 0 0 93 94;" xml:space="preserve">
<style type="text/css">
	.st0{display:none;}
	.st1{display:inline;fill:url(#SVGID_1_);}
	.st2{display:inline;}
	.st3{fill:#FFFFFF;}
	.st4{fill:url(#SVGID_2_);}
</style>
<g id="Layer_1" class="st0">
	<linearGradient id="SVGID_1_" gradientUnits="userSpaceOnUse" x1="0" y1="47.4768" x2="92.9536" y2="47.4768">
		<stop  offset="0" style="stop-color:#830909"/>
		<stop  offset="0.1129" style="stop-color:#870909"/>
		<stop  offset="0.2688" style="stop-color:#B90809"/>
		<stop  offset="0.4301" style="stop-color:#D60809"/>
		<stop  offset="0.5699" style="stop-color:#C40809"/>
		<stop  offset="0.7419" style="stop-color:#9B0807"/>
		<stop  offset="1" style="stop-color:#830909"/>
	</linearGradient>
	<circle class="st1" cx="46.5" cy="47.5" r="46.5"/>
	<g class="st2">
		<g>
			<path class="st3" d="M64.7,35.9c0,0-4-6.2-13.5-4.1c0,0-3.8,1.4-4.9,1.8c0,0-1.6,0.6-3.5-0.5c0,0-4-2.5-9.4-1.3
				c0,0-7.7,2-9.1,9.9c0,0-2.9,12.2,4.5,22.3c0,0,3.6,5.4,6.2,6.5c0,0,1.6,0.8,4.8,0c0,0,3.9-2.2,8.5-1.5c0,0,2.1,0.7,3.3,1.2
				c0,0,1.5,0.8,3.9,0.5c0,0,3.9-0.6,6.6-5c0,0,3.7-5.8,4.4-8.3c0,0,0.4-0.3-0.5-0.7c0,0-5.6-2.3-6.5-9.6c0,0-1-7,5.4-10.5
				C64.7,36.7,65.2,36.5,64.7,35.9z"/>
		</g>
		<g>
			<path class="st3" d="M44.9,30.7c0,0-0.6-10.1,10.1-12.1c0,0,0.6-0.3,0.5,0.6c0,0,0.3,8-6.9,11c0,0-1.3,0.5-2.8,0.8
				C45.9,31,44.9,31.4,44.9,30.7z"/>
			<path class="st3" d="M45.3,31.3c-0.2,0-0.3,0-0.4-0.1c-0.1-0.1-0.1-0.2-0.1-0.4c0-0.1-0.5-10.3,10.2-12.2c0,0,0.1-0.1,0.3-0.1
				c0.1,0,0.2,0,0.3,0.1c0.1,0.1,0.2,0.3,0.1,0.6c0,0.1,0.3,8.1-6.9,11.1c0,0-1.4,0.5-2.8,0.8l0,0C45.9,31.1,45.6,31.3,45.3,31.3z
				 M55.3,18.7c-0.1,0-0.1,0-0.2,0l0,0c-10.5,1.9-10,11.8-10,11.9c0,0.1,0,0.2,0.1,0.2c0,0,0.1,0.1,0.2,0.1c0.2,0,0.5-0.1,0.5-0.1
				c1.5-0.2,2.8-0.8,2.8-0.8c7-3,6.8-10.8,6.8-10.9C55.4,18.9,55.4,18.8,55.3,18.7C55.3,18.8,55.3,18.7,55.3,18.7z"/>
		</g>
	</g>
</g>
<g id="Layer_2">
	<linearGradient id="SVGID_2_" gradientUnits="userSpaceOnUse" x1="1.0432" y1="46.9168" x2="92.8767" y2="46.9168">
		<stop  offset="0" style="stop-color:#830909"/>
		<stop  offset="0.1129" style="stop-color:#870909"/>
		<stop  offset="0.2688" style="stop-color:#B90809"/>
		<stop  offset="0.4301" style="stop-color:#D60809"/>
		<stop  offset="0.5699" style="stop-color:#C40809"/>
		<stop  offset="0.7419" style="stop-color:#9B0807"/>
		<stop  offset="1" style="stop-color:#830909"/>
	</linearGradient>
	<circle class="st4" cx="47" cy="46.9" r="45.9"/>
	<g>
		<path class="st3" d="M29,57.7h-5.7c-0.3,0-0.6-0.3-0.6-0.6V37c0-0.3,0.3-0.6,0.6-0.6H29c0.3,0,0.6,0.3,0.6,0.6v20.1
			C29.5,57.4,29.3,57.7,29,57.7z"/>
		<path class="st3" d="M69.6,57.7h-5.7c-0.3,0-0.6-0.3-0.6-0.6V37c0-0.3,0.3-0.6,0.6-0.6h5.7c0.3,0,0.6,0.3,0.6,0.6v20.1
			C70.2,57.4,70,57.7,69.6,57.7z"/>
		<path class="st3" d="M55.3,74.6h-5.7c-0.3,0-0.6-0.3-0.6-0.6V53.9c0-0.3,0.3-0.6,0.6-0.6h5.7c0.3,0,0.6,0.3,0.6,0.6V74
			C55.8,74.3,55.6,74.6,55.3,74.6z"/>
		<path class="st3" d="M43.4,74.6h-5.7c-0.3,0-0.6-0.3-0.6-0.6V53.9c0-0.3,0.3-0.6,0.6-0.6h5.7c0.3,0,0.6,0.3,0.6,0.6V74
			C44,74.3,43.7,74.6,43.4,74.6z"/>
		<path class="st3" d="M34.3,37.1h24.1H62v3.6v18.7c0,2-1.6,3.6-3.6,3.6H34.3c-2,0-3.6-1.6-3.6-3.6V40.7v-3.6H34.3z"/>
		<path class="st3" d="M54.2,23.3l2.5-4.5c0.1-0.2,0-0.5-0.2-0.7l0,0c-0.2-0.1-0.5,0-0.7,0.2l-2.5,4.5c-2.1-0.9-4.4-1.5-6.9-1.5
			c-2.4,0-4.7,0.5-6.8,1.4l-2.4-4.5c-0.1-0.2-0.4-0.3-0.7-0.2l0,0c-0.2,0.1-0.3,0.4-0.2,0.7l2.4,4.4c-4.7,2.4-8,7-8,12.3H62
			C62,30.3,58.9,25.8,54.2,23.3z M39.4,30.1c-0.7,0-1.3-0.6-1.3-1.3c0-0.7,0.6-1.3,1.3-1.3c0.7,0,1.3,0.6,1.3,1.3
			C40.7,29.5,40.1,30.1,39.4,30.1z M53.7,30.1c-0.7,0-1.3-0.6-1.3-1.3c0-0.7,0.6-1.3,1.3-1.3c0.7,0,1.3,0.6,1.3,1.3
			C55,29.5,54.4,30.1,53.7,30.1z"/>
	</g>
</g>
</svg>
